<?xml version="1.0" encoding="UTF-8" standalone="no"?>
<!-- Created with Inkscape (http://www.inkscape.org/) -->

<svg
   xmlns:dc="http://purl.org/dc/elements/1.1/"
   xmlns:cc="http://creativecommons.org/ns#"
   xmlns:rdf="http://www.w3.org/1999/02/22-rdf-syntax-ns#"
   xmlns:svg="http://www.w3.org/2000/svg"
   xmlns="http://www.w3.org/2000/svg"
   xmlns:sodipodi="http://sodipodi.sourceforge.net/DTD/sodipodi-0.dtd"
   xmlns:inkscape="http://www.inkscape.org/namespaces/inkscape"
   version="1.1"
   id="svg2"
   width="760.27814"
   height="768"
   viewBox="0 0 760.27813 768"
   sodipodi:docname="Sand Dollar.svg"
   inkscape:version="0.92.3 (2405546, 2018-03-11)">
  <metadata
     id="metadata8">
    <rdf:RDF>
      <cc:Work
         rdf:about="">
        <dc:format>image/svg+xml</dc:format>
        <dc:type
           rdf:resource="http://purl.org/dc/dcmitype/StillImage" />
        <dc:title />
      </cc:Work>
    </rdf:RDF>
  </metadata>
  <defs
     id="defs6" />
  <sodipodi:namedview
     pagecolor="#ffffff"
     bordercolor="#666666"
     borderopacity="1"
     objecttolerance="10"
     gridtolerance="10"
     guidetolerance="10"
     inkscape:pageopacity="0"
     inkscape:pageshadow="2"
     inkscape:window-width="1920"
     inkscape:window-height="1001"
     id="namedview4"
     showgrid="false"
     inkscape:object-nodes="false"
     fit-margin-top="0"
     fit-margin-left="0"
     fit-margin-right="0"
     fit-margin-bottom="0"
     inkscape:zoom="1.0130208"
     inkscape:cx="206.40128"
     inkscape:cy="392.00493"
     inkscape:window-x="-9"
     inkscape:window-y="-9"
     inkscape:window-maximized="1"
     inkscape:current-layer="svg2" />
  <path
     style="fill:#d3b283;stroke-width:1.3141818"
     d="M 389.25597,3.8540564e-4 C 367.56817,-0.01683959 362.62373,-1.5867996 336.06305,1.6848254 309.50237,4.9564504 262.26139,15.07934 230.30608,27.121425 c -31.95531,12.042085 -43.29052,22.87568 -55.45488,36.76565 -12.16436,13.88997 -12.95846,18.527012 -14.73962,29.69422 -1.78116,11.167205 -6.05718,19.206185 -11.58893,24.188515 -5.53175,4.98233 -33.84049,19.6814 -40.11848,21.5608 -6.27799,1.8794 -16.245944,6.15822 -31.234272,16.44011 -14.988328,10.28189 -44.11437,59.78907 -55.67626,95.95836 -11.5618905,36.16929 -10.721701,39.44828 -17.1074638,72.85751 -6.3857624,33.40923 -5.559054,73.83717 -1.479096,101.84909 4.079958,28.01191 15.9086368,66.75429 23.0815998,82.38341 7.172963,15.62912 5.443402,11.95549 20.954397,14.1974 15.510995,2.2419 24.721202,12.90798 27.76594,19.43039 3.044738,6.52241 3.000052,3.0869 4.430872,9.4938 1.43082,6.4069 0.04346,15.45166 0.08021,28.91136 0.03675,13.4597 -0.148357,28.37208 3.041612,36.05658 3.189969,7.6845 9.107627,18.14612 14.409155,25.52644 5.301526,7.38031 33.533466,31.90203 41.379396,37.63834 7.84593,5.73631 3.3893,2.30627 13.49796,10.30235 10.10866,7.99608 82.15453,48.7241 90.93072,51.55019 8.77619,2.82609 3.50434,0.4939 6.20193,2.61167 2.69759,2.11777 40.29069,13.34119 55.18537,16.33423 14.89468,2.99304 12.87834,2.74261 15.76954,3.51325 2.8912,0.77064 10.57981,1.84428 17.08501,2.38388 6.5052,0.5396 10.37516,0.82484 13.57175,1.16788 3.19659,0.34303 30.85484,-1.84167 43.59323,-5.25545 12.73839,-3.41378 36.00423,-15.83957 43.09913,-23.06875 7.0949,-7.22918 8.38874,-8.47801 14.23911,-10.98574 5.85037,-2.50773 27.14739,-3.39635 41.47244,0.14438 14.32505,3.54073 33.68016,4.86974 46.05732,2.71435 12.37716,-2.15539 34.62558,-11.13103 40.43291,-14.62412 5.80733,-3.49309 3.89599,-2.3072 8.68528,-5.09503 4.78929,-2.78783 13.44445,-8.31255 30.31986,-19.60684 16.87541,-11.29429 66.34949,-67.00221 85.29669,-95.00547 18.9472,-28.00326 40.71199,-76.33536 42.12056,-84.42399 1.40857,-8.08863 0.15542,-1.84999 4.12927,-17.95448 3.97385,-16.10449 2.48164,-53.42866 -5.03405,-64.39684 -7.51569,-10.96818 -8.47418,-16.44352 -8.35161,-25.62591 0.12257,-9.18239 6.56879,-26.06981 13.70651,-42.71091 7.13772,-16.6411 4.82625,-12.36973 8.58581,-35.28333 3.75956,-22.9136 -4.84116,-66.21828 -17.52777,-94.81936 -12.68661,-28.60108 -18.43241,-39.40321 -21.90409,-43.52907 -3.47168,-4.12586 -29.06022,-39.70339 -41.92163,-58.85583 -12.86141,-19.15244 -39.23868,-30.973415 -43.79857,-31.850305 -4.55989,-0.87689 -9.60459,-1.77826 -26.71037,-2.38709 -17.10578,-0.60883 -19.18317,-0.03604 -26.93816,-4.54958 C 572.08942,86.253945 554.8499,70.51033 549.57908,60.713915 544.30826,50.9175 531.61133,31.91764 526.60978,26.916085 521.60823,21.91453 505.62151,14.131995 497.50593,11.669525 489.39035,9.2070552 470.46787,6.4599304 457.62487,4.6077254 444.78186,2.7555204 445.68118,2.8151354 439.2244,1.7682454 432.76762,0.7213554 410.94377,0.01761041 389.25597,3.8540564e-4 Z M 336.79137,35.861255 c 1.27698,0.11517 1.50729,0.34513 4.92178,2.11437 3.41449,1.76924 9.3862,10.900705 12.38782,17.54702 3.00162,6.646315 4.99101,14.28446 5.1592,21.67309 0.16819,7.38863 -0.62974,17.969072 -4.12929,21.67309 -3.49955,3.704015 -4.63315,2.967715 -8.25535,2.066245 -3.6222,-0.90147 -7.32272,-5.47167 -10.32158,-9.288475 -2.99886,-3.816805 -5.80556,-7.78592 -7.22544,-13.41774 -1.41988,-5.63182 -0.50182,-12.881685 0,-19.61006 0.50182,-6.728375 0.23935,-18.18291 3.09617,-20.64317 2.85682,-2.46026 3.08971,-2.22954 4.36669,-2.11437 z m 5.08861,84.234685 c 1.20229,-0.0848 2.21127,0.54191 3.96244,1.4791 1.75117,0.93719 3.20703,2.28562 4.12928,6.19231 0.92225,3.90669 -0.83518,6.19607 -2.06624,16.5139 -1.23106,10.31783 -4.40399,29.21018 -5.1592,45.41242 -0.75521,16.20224 -0.66859,34.17685 1.03313,51.60473 1.70172,17.42788 8.25635,40.8472 9.28845,52.63466 1.0321,11.78746 1.33253,13.74827 0,17.54702 -1.33253,3.79875 -0.60059,4.96374 -4.12927,5.15918 -3.52868,0.19544 -5.52566,-3.66439 -10.32158,-10.31838 -4.79592,-6.65399 -11.30515,-18.70098 -15.48079,-30.96477 -4.17564,-12.26379 -7.77808,-26.11223 -8.25534,-42.31626 -0.47726,-16.20403 3.95964,-38.17791 7.22544,-53.66776 3.2658,-15.48985 8.61791,-29.58185 11.35149,-39.22012 2.73358,-9.63827 2.74127,-16.7391 5.1592,-18.57693 2.41793,-1.83783 2.0607,-1.39428 3.26299,-1.4791 z m 21.1822,0.12513 c 1.08768,0.0169 2.60001,0.65697 6.51957,4.45012 3.91956,3.79315 7.85897,13.96028 13.41775,24.77247 5.55878,10.81219 13.94165,24.91388 19.60685,40.25001 5.6652,15.33613 12.13228,35.51199 13.41773,51.60473 1.28545,16.09274 -1.64305,32.33867 -4.12607,43.34618 -2.48302,11.00751 -3.97412,19.70528 -8.25855,22.70622 -4.28443,3.00094 -4.4638,1.25314 -7.22543,0 -2.76163,-1.25314 -4.94551,-2.196 -7.22222,-8.25534 -2.27671,-6.05934 0.69943,-15.79477 0,-27.8654 -0.69943,-12.07063 -2.76383,-29.40149 -5.1624,-44.38252 -2.39857,-14.98103 -5.64895,-30.95135 -9.28848,-45.40921 -3.63953,-14.45786 -9.61605,-32.17446 -12.38461,-41.28636 -2.76856,-9.1119 -4.41742,-9.93286 -4.12928,-13.41453 0.28814,-3.48167 1.49972,-5.66017 3.09616,-6.19231 1.59644,-0.53214 0.6513,-0.34094 1.73898,-0.32406 z m 308.25519,126.16914 c 1.62687,0.0397 5.54616,0.32801 7.88958,3.16354 2.34342,2.83553 1.74233,8.99525 1.03313,13.41774 -0.7092,4.42249 -0.5663,7.71748 -5.16241,12.38462 -4.59611,4.66714 -17.75648,7.29091 -23.73612,10.3216 -5.97964,3.03069 -7.99921,6.8312 -12.38462,7.22542 -4.38541,0.39422 -9.41016,-1.35303 -11.35471,-4.12927 -1.94455,-2.77624 -1.17054,-4.02932 0,-8.25535 1.17054,-4.22603 5.30055,-10.76178 9.28847,-15.48398 3.98792,-4.7222 9.18955,-9.27572 14.45086,-12.38462 5.26131,-3.1089 13.45426,-6.05065 16.51389,-6.19231 3.05963,-0.14166 2.91964,-0.0807 3.46193,-0.0674 0.54228,0.0132 -1.62687,-0.0397 0,1e-5 z m -612.807827,2.85232 c 3.732096,-0.0441 12.341035,2.91344 18.990825,4.44049 6.64979,1.52705 16.364718,3.94468 21.673086,7.22544 5.308366,3.28076 9.516686,5.88287 10.321586,10.3216 0.8049,4.43873 0.92388,7.43245 -5.1624,11.35149 -6.086283,3.91904 -21.659472,3.44106 -30.961549,0 -9.302077,-3.44106 -19.234514,-11.99388 -21.67309,-18.57693 -2.438576,-6.58305 -1.061483,-11.07086 2.063034,-13.41775 3.124517,-2.34689 1.016412,-1.3002 4.748508,-1.34434 z m 110.133307,32.58182 c 3.94602,-0.0297 12.29264,1.18266 22.90514,1.91545 10.6125,0.73279 28.53614,0.95873 44.59106,4.04586 16.05492,3.08713 36.66791,7.99116 51.1042,15.21768 14.43629,7.22652 26.82128,18.14261 34.95609,25.9628 8.13481,7.82019 14.8087,13.59528 15.15992,18.81435 0.35122,5.21907 -1.23659,4.46463 -3.73784,6.17948 -2.50125,1.71485 -4.44287,3.09915 -10.80606,1.91225 -6.36319,-1.1869 -13.15403,-8.77188 -23.84522,-14.4188 -10.69119,-5.64693 -26.58698,-12.84927 -40.64787,-18.54804 -14.06089,-5.69877 -29.41175,-11.17881 -43.66702,-15.54495 -14.25527,-4.36614 -32.50567,-8.41897 -41.73554,-10.76437 -9.22987,-2.34541 -10.78637,-1.35935 -13.61667,-3.40737 -2.8303,-2.04802 -4.29235,-3.22908 -3.69933,-5.85542 0.59302,-2.62634 4.03904,-3.93425 7.80615,-4.92818 3.76711,-0.99393 1.28697,-0.55106 5.23299,-0.58074 z m 428.30582,2.67906 c 2.73601,-0.15366 2.57646,-0.71432 5.02122,1.08766 2.44476,1.80198 2.5367,4.53727 2.03738,6.93026 -0.49932,2.39299 -1.29216,3.72199 -4.7806,5.70784 -3.48844,1.98585 -6.1775,0.94605 -16.42407,2.67265 -10.24657,1.7266 -29.26905,4.00317 -45.0274,7.84466 -15.75835,3.84149 -32.97892,8.99108 -49.22085,15.53532 -16.24193,6.54424 -36.86732,19.43356 -47.88614,23.74575 -11.01882,4.31219 -12.81444,5.15219 -16.83475,4.94422 -4.02031,-0.20797 -4.93014,0.82478 -6.1121,-2.5058 -1.18196,-3.33058 1.95851,-6.33462 6.99122,-12.81135 5.03271,-6.47673 14.75683,-16.11634 25.34676,-23.5789 10.58993,-7.46256 22.86088,-14.82298 38.27362,-19.84748 15.41274,-5.0245 37.74744,-6.9625 53.52981,-8.1944 15.78237,-1.2319 32.68793,-0.0845 40.82755,-0.16041 8.13962,-0.0759 11.52234,-1.21636 14.25835,-1.37002 z m -444.51172,15.51608 c 1.24851,0.0795 0.84833,-0.0803 3.47477,0.76681 2.62644,0.84712 4.8724,3.91997 13.0648,10.31197 8.1924,6.392 22.71721,18.88409 36.19134,27.91352 13.47413,9.02943 28.89953,18.25408 44.69372,25.81521 15.79419,7.56113 39.22873,14.07026 49.84973,19.286 10.621,5.21574 12.45106,5.97411 15.01234,9.07993 2.56128,3.10582 3.93974,3.08119 2.28121,6.20193 -1.65853,3.12074 -5.99622,2.82958 -14.17173,3.4908 -8.17551,0.66122 -21.85179,3e-5 -34.5069,-2.7721 -12.65511,-2.77213 -26.37088,-6.85377 -40.48424,-14.82948 -14.11336,-7.97571 -30.62242,-23.13937 -42.18793,-33.94862 -11.56552,-10.80926 -20.85227,-22.68249 -27.68573,-30.00865 -6.83346,-7.32616 -12.76058,-9.63458 -13.22844,-14.02734 -0.46786,-4.39276 2.02979,-5.16908 3.73785,-6.1827 1.70806,-1.01362 2.7107,-1.17677 3.95921,-1.09728 z m 453.36383,5.33565 c 1.21127,-0.0479 2.30956,-0.0669 3.55818,1.72936 1.24862,1.79629 1.26382,3.56671 -1.6331,9.08633 -2.89692,5.51962 -11.17807,11.47336 -19.98545,19.85389 -8.80738,8.38053 -19.9772,20.40188 -33.09517,30.15945 -13.11797,9.75757 -30.65184,21.64764 -45.73006,27.41622 -15.07822,5.76858 -31.49472,7.53561 -42.75582,8.25535 -11.2611,0.71973 -20.02479,1.74104 -24.11152,-1.52401 -4.08673,-3.26505 -2.46143,-3.93061 -2.03736,-6.93346 0.42407,-3.00285 0.71537,-5.36432 5.8875,-9.25639 5.17213,-3.89207 15.35175,-3.7815 26.73602,-7.85429 11.38427,-4.0728 27.42808,-10.93389 41.12594,-17.45718 13.69786,-6.52329 28.10973,-14.1451 40.95589,-21.7116 12.84616,-7.5665 28.15522,-18.29372 36.11754,-23.51796 7.96232,-5.22424 9.35838,-7.25749 11.71084,-7.74199 2.35246,-0.4845 2.0453,-0.45579 3.25657,-0.50372 z m -290.14027,110.467 c 0.16912,-0.001 -1.75996,-0.30576 0.99463,0.061 2.75459,0.36676 4.13461,2.09813 5.31961,4.88967 1.185,2.79154 2.15518,4.96484 -0.26951,10.96649 -2.42469,6.00165 -11.20513,11.15517 -18.85928,20.51484 -7.65415,9.35967 -17.86258,23.51344 -26.2355,36.16567 -8.37292,12.65223 -16.79129,26.61052 -23.89656,39.71742 -7.10527,13.1069 -14.69231,30.19234 -18.82077,38.77414 -4.12846,8.5818 -3.47308,10.30521 -6.04151,12.67338 -2.56843,2.36817 -4.01479,3.56594 -6.47146,2.46409 -2.45667,-1.10185 -2.91829,-2.40452 -3.28223,-8.62752 -0.36394,-6.223 3.66028,-15.59489 6.88532,-27.31677 3.22504,-11.72188 6.59655,-27.77902 12.80493,-42.90341 6.20838,-15.12439 15.1004,-34.35386 25.04518,-47.07119 9.94478,-12.71733 23.38886,-22.89741 32.37648,-29.11991 8.98762,-6.2225 17.91392,-11.16413 20.45067,-11.18786 2.53676,-0.0237 -0.16912,0.001 0,-4e-5 z m 123.14678,1.68764 c 1.75155,0.0403 5.12028,1.64693 11.59856,4.73567 6.47829,3.08874 18.89972,10.96205 28.45577,19.70952 9.55605,8.74747 19.37321,19.15978 27.57984,33.1401 8.20663,13.98032 14.87819,35.38327 19.45925,50.53632 4.58106,15.15305 6.65855,30.08308 8.89383,39.84896 2.23528,9.76588 6.20452,14.73487 4.40522,18.76944 -1.7993,4.03457 -3.89231,3.45037 -6.33671,3.47476 -2.4444,0.0244 -3.91016,-0.46327 -6.59657,-3.44588 -2.68641,-2.98261 -2.24544,-5.83472 -6.12494,-15.47436 -3.8795,-9.63964 -10.17816,-27.73232 -17.30317,-42.30343 -7.12501,-14.57111 -15.8375,-30.29287 -25.70612,-44.75791 -9.86862,-14.46504 -26.87444,-31.85318 -33.44489,-41.69383 -6.57045,-9.84065 -7.77455,-11.41284 -8.43181,-15.38452 -0.65726,-3.97168 -0.73629,-5.34283 1.13899,-6.50994 1.87528,-1.16711 0.6612,-0.68517 2.41275,-0.6449 z m -77.92687,27.38733 c 0.84149,-0.0122 0.45564,-0.37503 2.33256,1.16788 1.87692,1.54291 1.58531,6.43806 0.6128,14.58242 -0.97251,8.14435 -4.33227,21.41718 -9.55797,33.27164 -5.22569,11.85446 -11.94355,24.48769 -22.55862,36.73998 -10.61507,12.25229 -28.75517,25.42908 -41.6425,34.6224 -12.88733,9.19332 -26.36297,15.94299 -34.89832,21.18862 -8.53535,5.24563 -11.97441,10.59581 -16.37274,10.18361 -4.39833,-0.4122 -4.51353,-2.58188 -5.31961,-4.88968 -0.80608,-2.3078 -0.81314,-3.85033 1.15185,-7.35056 1.96499,-3.50023 4.80671,-3.99836 12.69583,-10.76114 7.88912,-6.76278 23.0114,-18.52439 34.53258,-29.94127 11.52118,-11.41688 23.62168,-24.70554 34.16358,-38.68751 10.5419,-13.98197 21.56863,-35.66071 28.78623,-45.03704 7.2176,-9.37633 8.98856,-11.3777 11.87447,-12.91722 2.88591,-1.53952 3.35837,-2.15989 4.19986,-2.17213 z m 40.542,4.11966 c 1.44848,0.0259 3.81256,0.17748 8.10776,3.8694 4.2952,3.69192 6.97724,14.1867 13.39207,24.43557 6.41483,10.24887 16.55322,24.45397 25.85692,36.43838 9.3037,11.98441 19.82969,24.43116 29.97015,35.36034 10.14046,10.92918 23.89761,23.58951 30.70487,30.24928 6.80726,6.65977 8.64742,6.5877 10.06813,9.77935 1.42071,3.19165 2.09058,4.94635 0.25988,6.92065 -1.8307,1.97429 -3.21259,1.99503 -9.22429,0.3465 -6.0117,-1.64853 -13.59747,-8.46246 -23.66875,-15.27222 -10.07128,-6.80976 -24.20535,-15.14719 -36.54427,-25.87296 -12.33892,-10.72577 -27.70483,-25.30872 -36.56671,-38.80302 -8.86188,-13.4943 -14.10342,-29.15041 -17.21656,-39.99655 -3.11314,-10.84614 -5.98526,-19.18969 -3.67047,-23.8805 2.31479,-4.69081 4.44346,-3.32879 6.33348,-3.47155 1.89002,-0.14276 0.74931,-0.12853 2.19779,-0.10267 z m 141.32267,148.27859 c 2.03657,-0.0715 8.76764,2.92781 13.64234,5.23299 4.8747,2.30518 10.41137,4.50966 15.48399,9.28846 5.07262,4.7788 11.63038,13.13363 13.41452,19.61005 1.78414,6.47642 2.5057,13.48198 -1.0299,16.51391 -3.5356,3.03193 -6.42621,0.74624 -11.35472,-1.03313 -4.92851,-1.77937 -11.28651,-6.70042 -16.51389,-11.3515 -5.22738,-4.65108 -10.70774,-11.09847 -14.44767,-16.5139 -3.73993,-5.41543 -9.26287,-10.94698 -8.25534,-15.48078 1.00753,-4.5338 6.0086,-5.85221 8.25534,-6.19231 2.24674,-0.3401 0.66956,-0.069 0.80533,-0.0738 0.13577,-0.005 -2.03656,0.0715 0,10e-6 z m -336.09814,9.93015 c 1.97778,-0.0679 4.86631,0.56745 7.08748,2.52826 2.22117,1.96081 3.09615,6.02472 3.09615,9.28847 0,3.26375 -0.72438,3.83973 -3.09615,9.28847 -2.37177,5.44874 -7.58014,16.51068 -12.38463,22.70621 -4.80449,6.19553 -10.24891,12.915 -15.48077,14.45087 -5.23186,1.53587 -9.01704,0.73093 -11.35151,-2.06624 -2.33447,-2.79717 -0.63358,-4.92522 0,-10.3216 0.63358,-5.39638 2.48639,-15.97534 5.15919,-21.67309 2.6728,-5.69775 5.34344,-8.34995 9.28847,-12.38462 3.94503,-4.03467 11.52258,-10.65262 14.45087,-11.35151 2.92829,-0.69889 1.25312,-0.39727 3.2309,-0.46522 z"
     id="path20"
     inkscape:connector-curvature="0"
     sodipodi:nodetypes="zzzzzzzzzzzzzzzzzzzzzzzzzzzzzzzzzzzzzzzzzzzzzzzzzzzzzzzzzzzzzzzzzzzzzzzzzzzzzzzzzzzzzzzzzzzzzzzzzzzzzzzzzzzzzzzzzzzzzzzzzzzzzzzzzzzzzzzzzzzzzzzzzzzzzzzzzzzzzzzzzzzzzzzzzzzzzzzzzzzzzzzzzzzzzzzzzzzzzzzzzzzzzzzzzzzzzzzzzzzzzzzzzzzzzzzzzzzzzzzzzzzzzzzzzzzzzzzzzzzzzzzzzzzzzzz" />
  <g
     id="g160"
     inkscape:transform-center-x="8.7959997"
     inkscape:transform-center-y="-99.268829"
     transform="translate(-15.650256,289.0475)" />
  <g
     id="g166"
     transform="rotate(-58.841384,511.45534,405.01334)" />
  <g
     transform="rotate(-137.40813,296.27493,389.46378)"
     id="g172"
     inkscape:transform-center-x="56.415527"
     inkscape:transform-center-y="78.490723" />
  <g
     inkscape:transform-center-y="79.914427"
     inkscape:transform-center-x="-53.493545"
     id="g178"
     transform="rotate(151.27354,201.93793,384.42451)" />
  <g
     transform="rotate(73.631254,34.341262,376.52365)"
     id="g184" />
</svg>
