<?xml version="1.0" encoding="UTF-8" standalone="no"?>
<!-- Created with Inkscape (http://www.inkscape.org/) -->

<svg
   xmlns:dc="http://purl.org/dc/elements/1.1/"
   xmlns:cc="http://creativecommons.org/ns#"
   xmlns:rdf="http://www.w3.org/1999/02/22-rdf-syntax-ns#"
   xmlns:svg="http://www.w3.org/2000/svg"
   xmlns="http://www.w3.org/2000/svg"
   xmlns:sodipodi="http://sodipodi.sourceforge.net/DTD/sodipodi-0.dtd"
   xmlns:inkscape="http://www.inkscape.org/namespaces/inkscape"
   id="svg4141"
   version="1.1"
   inkscape:version="0.92.3 (2405546, 2018-03-11)"
   width="532.51978"
   height="959.99994"
   viewBox="0 0 532.51976 959.99994"
   sodipodi:docname="Seahorse.svg"
   inkscape:export-filename="C:\Users\Jessica\Desktop\Beach Shapes\PNG Files\Seahorse.png"
   inkscape:export-xdpi="90"
   inkscape:export-ydpi="90">
  <metadata
     id="metadata4147">
    <rdf:RDF>
      <cc:Work
         rdf:about="">
        <dc:format>image/svg+xml</dc:format>
        <dc:type
           rdf:resource="http://purl.org/dc/dcmitype/StillImage" />
        <dc:title />
      </cc:Work>
    </rdf:RDF>
  </metadata>
  <defs
     id="defs4145" />
  <sodipodi:namedview
     pagecolor="#ffffff"
     bordercolor="#666666"
     borderopacity="1"
     objecttolerance="10"
     gridtolerance="10"
     guidetolerance="10"
     inkscape:pageopacity="0"
     inkscape:pageshadow="2"
     inkscape:window-width="1920"
     inkscape:window-height="1001"
     id="namedview4143"
     showgrid="false"
     fit-margin-top="0"
     fit-margin-left="0"
     fit-margin-right="0"
     fit-margin-bottom="0"
     inkscape:zoom="0.81041672"
     inkscape:cx="49.087668"
     inkscape:cy="479.99997"
     inkscape:window-x="-9"
     inkscape:window-y="-9"
     inkscape:window-maximized="1"
     inkscape:current-layer="svg4141" />
  <path
     style="fill:#37abc8;stroke-width:0.44444442"
     d="m 332.57788,959.55234 c -30.21749,-1.5372 -57.67469,-8.7153 -90.22049,-23.5854 -30.7927,-14.0693 -57.44099,-32.0698 -80.49479,-54.3729 -20.34132,-19.6785 -33.6048,-37.2417 -43.62544,-57.7667 -25.853016,-52.9555 -22.356936,-113.9755 9.72375,-169.7184 3.08541,-5.3611 5.40245,-10.083 5.14906,-10.493 -0.25344,-0.4101 -4.2376,-1.9742 -8.85379,-3.4758 l -8.39294,-2.7302 -6.36124,2.1487 c -3.49867,1.1817 -17.6011,6.5687 -31.338727,11.9709 -15.098528,5.9373 -25.334754,9.4649 -25.880714,8.919 -0.546,-0.546 2.289191,-7.2761 7.168293,-17.0159 4.439373,-8.8619 8.331746,-17.7672 8.649773,-19.7894 1.585955,-10.0854 -15.868711,-16.2242 -51.471123,-18.1024 l -13.7816571,-0.7271 3.4132087,-2.8632 c 1.8772889,-1.5749 8.5233994,-5.3371 14.7692084,-8.3606 30.491448,-14.7606 36.132634,-17.7591 39.579225,-21.0377 5.667885,-5.3918 6.250942,-10.5678 1.824334,-16.1953 -4.531778,-5.7612 -13.008293,-10.0156 -37.453675,-18.7984 -13.306213,-4.7807 -24.53999881,-9.0162 -24.9640388,-9.4124 -0.42397332,-0.3961 7.5745153,-3.0488 17.7745198,-5.8949 40.817754,-11.3893 46.496634,-13.775 48.703256,-20.4612 3.891813,-11.7922 -5.49964,-30.1942 -26.647964,-52.2151 -11.904262,-12.3954 -11.94547,-12.459 -7.284004,-11.2222 2.075796,0.5507 9.550858,2.9559 16.611306,5.3448 16.082702,5.4416 25.596519,7.5079 35.055243,7.6136 18.802656,0.2104 32.689306,-7.3638 50.164506,-27.361 3.21006,-3.6732 5.47898,-5.5237 6.05388,-4.9373 1.44396,1.4728 6.93878,26.5527 7.942,36.2495 0.97577,9.4315 2.73418,13.55 7.20943,16.8858 2.29594,1.7113 4.02731,2.0152 10.67324,1.8735 14.44231,-0.3079 25.07967,-4.1361 33.9051,-12.2021 6.02793,-5.5092 8.7307,-10.3976 8.28694,-14.9884 -0.25305,-2.6176 -1.00395,-3.5038 -4.25712,-5.024 -5.45883,-2.5507 -22.70137,-20.3276 -34.62938,-35.7025 -11.93222,-15.3803 -28.2922,-43.3206 -33.44013,-57.1104 -4.44556,-11.9085 -9.87073,-32.7811 -11.45833,-44.0841 -1.64442,-11.7081 -1.39721,-34.2061 0.49373,-44.93 5.44817,-30.8974 22.24572,-62.2127 47.25047,-88.0878 4.92806,-5.0996 4.95825,-5.1698 3.834,-8.9223 -1.53444,-5.1214 -5.00059,-8.4266 -18.941,-18.0613 -6.52524,-4.5098 -11.86401,-8.5114 -11.86401,-8.8925 0,-0.3811 1.55502,-0.9453 3.45555,-1.2537 10.8964,-1.7683 27.87527,-15.0662 30.18402,-23.6403 1.51355,-5.6209 0.76363,-9.2662 -5.57002,-27.074798 -3.00553,-8.451 -5.25562,-15.5745 -5.00011,-15.8299 0.25547,-0.2556 4.15188,0.2875 8.65865,1.2067 10.89202,2.2216 32.30858,1.7181 37.20439,-0.8746 4.07542,-2.1582 8.5333,-9.0588 10.11712,-15.6608 1.17003,-4.8772 0.7351,-26.1734 -0.72762,-35.6323 l -0.58076,-3.7553 7.01602,5.278 c 11.21102,8.4339 25.46784,14.5759 33.83356,14.5759 9.78765,0 21.84816,-8.3775 34.18878,-23.7484003 7.2076,-8.97749999 8.83899,-10.52849999 9.6597,-9.18349999 3.73718,6.12429999 7.61043,10.01850029 12.38583,12.45280029 8.72761,4.4491 19.79725,4.5337 29.93418,0.2286 1.16908,-0.4965 0.13627,1.511 -2.84982,5.5392 -5.53615,7.4682 -9.32922,15.1355 -9.34264,18.8853 -0.021,5.8479 5.66336,6.7638 23.81216,3.8366 14.69704,-2.3704 29.85676,6.0293 45.11654,24.9984 5.18115,6.4405 5.93791,7.9482 6.55351,13.0573 1.03907,8.6236 4.99818,26.391098 7.99804,35.893998 11.22858,35.5685 29.08067,64.2661 57.74267,92.8224 13.7732,13.7225 14.88085,14.5853 26.61547,20.7328 19.12827,10.021 26.61293,18.1392 26.6624,28.9194 0.0302,6.549 -1.87134,10.4607 -7.49605,15.421 -11.91506,10.5076 -28.11275,13.5916 -39.75764,7.5698 -2.67249,-1.382 -7.72324,-6.6716 -11.26427,-11.797 -1.33293,-1.9293 -4.08822,-3.2623 -11.35595,-5.494 -21.28827,-6.5368 -31.7436,-7.9262 -67.36316,-8.9522 -30.83871,-0.8883 -35.53543,-1.5506 -45.98293,-6.4848 -7.31177,-3.4533 -16.94425,-13.6879 -29.37017,-31.2061 l -1.62455,-2.2903 -3.50501,3.9499 c -1.92777,2.1724 -5.38174,7.6934 -7.67549,12.269 -3.93141,7.8421 -4.1705,8.8045 -4.1705,16.787 0,7.5391 0.32104,9.0476 2.92676,13.7519 5.73572,10.3552 13.97967,16.5432 56.76504,42.6085 43.76401,26.6613 55.63347,35.0104 71.32494,50.1704 22.58009,21.8151 34.89636,41.6836 41.13578,66.3599 3.2004,12.6572 4.15747,22.3335 4.19898,42.4527 0.0572,27.7434 -1.53449,34.9542 -12.36431,56.0119 -7.14254,13.8883 -13.21658,21.8685 -27.68712,36.3762 -19.54644,19.5967 -30.25578,26.6452 -72.88914,47.9733 -26.00094,13.0073 -50.83044,26.666 -60.94225,33.5242 -8.76228,5.943 -16.91632,15.1997 -27.40826,31.1148 -10.45812,15.8639 -14.46568,24.6476 -18.60629,40.7809 -3.99327,15.5589 -5.33503,29.5963 -5.32356,55.6956 0.0145,33.2883 3.34392,55.1706 10.87319,71.4651 4.57737,9.9061 8.24897,15.3223 16.01377,23.6229 14.95175,15.9839 35.77827,27.4107 58.51896,32.1088 8.64956,1.7866 30.07255,1.5367 38.85217,-0.4536 18.91768,-4.2884 40.1101,-15.19335 47.27848,-27.8326 7.16838,-12.63925 12.68849,-41.7174 8.80564,-56.2532 -2.8148,-10.5375 -10.79853,-21.2992 -18.84755,-25.4056 -8.99778,-4.5898 -21.12556,-3.1579 -32.99642,3.8973 -11.84131,7.0372 -28.85564,26.3213 -39.69093,44.9864 -2.41386,4.1584 -4.65547,7.575 -4.98131,7.5938 -0.32587,0.016 -1.74348,-2.7434 -3.15022,-6.138 -9.7455,-23.5153 -0.54992,-53.9505 21.89361,-72.463 20.52551,-16.9303 46.09989,-25.1237 65.46011,-20.9716 12.71898,2.7277 31.65432,13.8614 43.37765,25.5047 14.50587,14.4076 20.34111,29.5598 21.3432,55.4221 1.50991,38.9677 -12.97004,79.4661 -36.87822,103.1427 -21.14032,20.9351 -55.08787,34.8654 -89.11067,36.5666 -5.77137,0.2884 -11.60423,0.6385 -12.96201,0.7776 -1.35779,0.1388 -8.24539,-0.041 -15.30583,-0.4007 z"
     id="path4691"
     inkscape:connector-curvature="0"
     inkscape:export-filename="C:\Users\Jessica\Desktop\Mermaids\Seahorse.png"
     inkscape:export-xdpi="90"
     inkscape:export-ydpi="90"
     sodipodi:nodetypes="ccccccccccccccccccsscccccccccscccccscccsccsccccccccccsccccscccsccccssccscccccscccccccccccccccczsccccccccscccc" />
</svg>
