<?xml version="1.0" encoding="UTF-8" standalone="no"?>
<!-- Created with Inkscape (http://www.inkscape.org/) -->

<svg
   xmlns:dc="http://purl.org/dc/elements/1.1/"
   xmlns:cc="http://creativecommons.org/ns#"
   xmlns:rdf="http://www.w3.org/1999/02/22-rdf-syntax-ns#"
   xmlns:svg="http://www.w3.org/2000/svg"
   xmlns="http://www.w3.org/2000/svg"
   xmlns:sodipodi="http://sodipodi.sourceforge.net/DTD/sodipodi-0.dtd"
   xmlns:inkscape="http://www.inkscape.org/namespaces/inkscape"
   version="1.1"
   id="svg2"
   width="818.17938"
   height="768"
   viewBox="0 0 818.17937 768"
   sodipodi:docname="Starfish.svg"
   inkscape:version="0.92.3 (2405546, 2018-03-11)"
   inkscape:export-filename="C:\Users\Jessica\Desktop\Beach Shapes\PNG Files\Starfish.png"
   inkscape:export-xdpi="96"
   inkscape:export-ydpi="96">
  <metadata
     id="metadata8">
    <rdf:RDF>
      <cc:Work
         rdf:about="">
        <dc:format>image/svg+xml</dc:format>
        <dc:type
           rdf:resource="http://purl.org/dc/dcmitype/StillImage" />
        <dc:title />
      </cc:Work>
    </rdf:RDF>
  </metadata>
  <defs
     id="defs6" />
  <sodipodi:namedview
     pagecolor="#ffffff"
     bordercolor="#666666"
     borderopacity="1"
     objecttolerance="10"
     gridtolerance="10"
     guidetolerance="10"
     inkscape:pageopacity="0"
     inkscape:pageshadow="2"
     inkscape:window-width="1920"
     inkscape:window-height="1001"
     id="namedview4"
     showgrid="false"
     inkscape:zoom="1.0130208"
     inkscape:cx="235.3519"
     inkscape:cy="384"
     inkscape:window-x="-9"
     inkscape:window-y="-9"
     inkscape:window-maximized="1"
     inkscape:current-layer="svg2"
     fit-margin-top="0"
     fit-margin-left="0"
     fit-margin-right="0"
     fit-margin-bottom="0" />
  <path
     style="fill:#b3b3b3;stroke-width:6.5526042"
     d="m 385.52541,0 c -30.51367,0 -35.93522,18.929902 -57.57527,119.72583 -21.64006,100.79592 -33.13005,125.5682 -59.07902,138.98687 -25.94897,13.41867 -58.0745,12.42775 -154.56847,-0.87993 C 17.808666,244.52509 0,248.21035 0,275.73407 c 0,27.52373 43.139234,75.8962 108.97546,114.39865 65.83622,38.50244 94.16165,64.89616 94.16165,78.75599 0,13.85982 2.19513,11.50408 -26.20402,78.2281 -28.39915,66.72402 -51.98198,182.79079 -39.09808,206.86456 12.8839,24.07378 37.14647,12.0115 52.37612,1.64782 15.22964,-10.36368 10.67886,-5.97556 84.99505,-73.97276 74.31619,-67.99719 119.72107,-98.99493 197.13805,-51.65623 77.41696,47.33873 131.94536,70.62676 172.80568,78.18019 40.86031,7.55344 69.09352,-5.81421 69.09352,-17.05339 0,-11.2392 -19.66616,-48.16247 -49.14453,-104.88009 -29.47836,-56.71762 -49.16321,-85.89145 -49.12855,-115.96643 0.0328,-30.07498 42.7532,-80.87765 133.9317,-122.8293 91.17851,-41.95166 80.92712,-81.49244 28.207,-94.17821 -25.2032,-6.06451 -43.77377,-7.27478 -135.18514,-7.69832 C 551.51255,245.15119 527.73798,263.32262 487.68584,155.0324 447.6337,46.742185 416.03901,0 385.52541,0 Z m 3.34347,52.424036 c 9.0616,0 12.25001,3.196109 17.38938,9.82251 5.13937,6.626401 5.745,11.197989 0,19.661011 -5.745,8.463011 -21.18563,6.049691 -26.14006,0.08192 -4.95442,-5.971548 -0.31091,-29.565424 8.75068,-29.565424 z m 15.51763,68.309584 c 10.89452,0 19.74103,6.13308 19.74103,19.661 0,13.52793 -8.09959,20.31938 -18.22124,21.7567 -10.12164,1.43731 -20.72039,-8.70637 -20.06096,-19.13303 0.65936,-10.42667 7.64665,-22.28467 18.54117,-22.28467 z m 5.51918,75.8445 c 20.88028,0 34.9859,27.62914 22.73254,42.39355 -12.25337,14.76433 -36.90967,13.96057 -46.025,-3.07154 -9.11533,-17.03209 2.41218,-39.32201 23.29246,-39.32201 z m 345.73947,80.11583 c 3.56044,0.14088 9.29708,0.54632 16.2055,7.4549 6.9084,6.9084 7.95993,13.22995 1.11984,19.45304 -6.84011,6.22309 -10.75832,8.44851 -21.05278,6.06304 -10.29448,-2.38547 -8.8357,-29.32838 -1.13582,-32.28312 7.69989,-2.95474 1.30282,-0.82882 4.86326,-0.68803 z m -89.42642,2.44764 c 10.38997,0.16217 12.70272,2.76446 17.43739,10.27039 4.73466,7.50593 7.00178,10.77436 -1.72777,21.29276 -8.72954,10.51841 -31.79995,15.1389 -37.73825,-0.33581 -5.9383,-15.4748 11.63866,-31.38903 22.02863,-31.22726 z m -595.781441,3.80739 c 8.405515,0.12368 14.749751,6.8012 14.749751,14.74975 0,7.94856 -7.847481,17.87468 -16.84544,16.82946 -8.99795,-1.04522 -14.437596,-9.22402 -12.910019,-17.34138 1.527577,-8.11737 6.600193,-14.36142 15.005708,-14.23783 z m 322.558981,2.09569 c 13.00144,-0.34811 29.2899,8.24489 28.98758,22.8445 -0.30224,14.59962 -12.50212,28.13852 -27.8358,27.85177 -15.33366,-0.28667 -27.66721,-11.45994 -26.04397,-28.45968 1.62324,-16.99975 11.89076,-21.8884 24.89219,-22.23659 z m 163.09771,15.08156 c 10.30533,-6.51625 23.70573,-6.0125 32.32855,2.61178 8.62282,8.62282 10.5809,27.79729 -2.43158,40.80979 -13.0125,13.01241 -30.00193,7.46511 -38.87415,-2.83155 -8.87221,-10.29666 -1.32815,-34.07377 8.97718,-40.59002 z m -426.96166,15.44178 c 8.41576,-0.67082 -1.58064,-0.80433 6.79898,0.15972 8.37964,0.96389 18.06127,5.45316 18.06127,18.46122 0,13.00807 -5.00429,16.95937 -18.06127,18.46123 -13.05696,1.50186 -17.63428,3.17728 -21.9966,-8.19075 -4.36231,-11.36804 6.78187,-28.2206 15.19762,-28.89166 z m 85.18705,12.68609 c 12.49156,-1.14572 36.00943,36.39569 17.67737,49.80045 -18.33205,13.40474 -25.00335,11.27162 -35.11467,-0.91188 -10.11132,-12.1835 -0.82702,-40.06664 7.8868,-45.52905 8.71381,-5.46242 -2.94106,-2.2138 9.5505,-3.35952 z m 253.30557,8.47874 c 6.62943,-0.29803 16.13792,0.98854 24.26831,10.11042 8.13039,9.12188 2.38335,33.7822 -12.62211,40.74581 -15.00546,6.96362 -27.5899,-4.00945 -32.81102,-15.1497 -5.22112,-11.14024 -2.90625,-17.43812 1.25604,-23.26606 4.16228,-5.82794 13.27936,-12.14244 19.90878,-12.44047 z m -148.79341,4.81526 c 7.29378,-0.249 16.95675,2.10609 22.8925,15.13365 5.93576,13.02756 7.65492,16.7564 -4.23937,29.89953 -11.89429,13.14313 -26.74888,13.32571 -38.65013,4.62327 -11.90125,-8.70242 -11.10707,-13.19006 -9.43853,-27.85176 1.66853,-14.66169 13.31694,-20.41103 23.45242,-21.38876 10.13549,-0.97773 -1.31076,-0.16709 5.98311,-0.4161 z m 129.06835,78.64403 c 7.2268,0.24491 -4.59861,-0.61431 5.91914,0.39971 10.51775,1.01467 21.7897,7.72486 23.37249,24.30033 1.58278,16.57547 3.9255,21.10839 -6.55909,27.75577 -10.48457,6.64737 -38.60016,4.02051 -45.16111,-8.23876 -6.56096,-12.25926 -5.43392,-18.35941 -0.1761,-29.89945 5.25797,-11.54003 15.37765,-14.56292 22.60451,-14.31785 z m -100.75266,2.35164 c 7.61804,0.0573 -5.92651,-1.4215 2.78362,0.25556 8.71013,1.67747 28.96841,31.63499 21.29276,45.977 -7.67563,14.34202 -42.26069,12.21111 -50.45635,4.01543 -8.19568,-8.19575 -7.87082,-8.70398 -7.87082,-18.63716 0,-9.93317 26.63273,-31.66595 34.25079,-31.61123 z m 139.47708,93.84932 c 8.8855,-19.23463 39.32525,-14.88071 48.03043,4.63174 8.70517,19.51245 -10.06916,34.08235 -25.09826,32.8242 -15.0291,-1.25815 -31.81766,-18.22131 -22.93217,-37.45594 z M 277.39786,505.3148 c 12.9242,0.0409 -5.82428,-1.23402 4.97523,0.36776 10.79951,1.60195 30.70059,22.0659 21.62867,36.55444 -9.07192,14.48855 -32.53908,21.46871 -46.85685,7.15094 -14.31776,-14.31777 7.32876,-44.11557 20.25295,-44.0733 z m 287.55629,64.87012 c 14.00922,0.1671 26.0778,10.19938 23.72436,26.84389 -2.35345,16.64452 -26.7067,23.1067 -36.44248,11.03836 -9.73577,-12.06834 -1.29111,-38.04934 12.71812,-37.88225 z M 215.50328,590.9018 c 8.04446,-0.72734 -1.37171,-0.80023 6.49494,0.11222 7.86664,0.91237 17.18141,5.57889 17.18141,18.3812 0,12.80231 -5.02503,16.97141 -17.18141,18.3812 -12.15639,1.40979 -16.86813,2.83933 -21.10079,-8.19075 -4.23265,-11.03009 6.56138,-27.95669 14.60585,-28.68363 z m 418.52834,45.41708 c 6.9279,-0.51684 -3.97072,-1.4849 5.56716,0.3522 9.5379,1.83687 16.9492,15.16711 13.2806,24.41651 -4.60838,11.61886 -22.15177,10.14951 -29.64613,2.09148 -6.15052,-11.49228 3.87047,-26.34335 10.79837,-26.85994 z m -450.69951,32.50706 c 6.86075,0.61759 16.52551,3.16221 16.52551,16.01358 0,12.85138 -29.5488,17.18987 -33.65892,6.47897 -4.11013,-10.71088 -1.245,-13.60074 2.60761,-17.45335 3.8526,-3.85261 7.66507,-5.6567 14.5258,-5.0392 z"
     id="path278"
     inkscape:connector-curvature="0"
     sodipodi:nodetypes="zzzzzzzzzzzzzzzzzsczzzzzzzzzzzzzzzzzzzzzzzzzzzzzzzzzzzzzzzzzzzzzzzzzzzzzzzzzzzzzzzzzzzzzzzzzzzzzzzzzzzzzzzzzzzzzzzzzzzzczzzzzccssccccsscc" />
</svg>
