<?xml version="1.0" encoding="utf-8"?>
<!-- Generator: Adobe Illustrator 18.1.1, SVG Export Plug-In . SVG Version: 6.00 Build 0)  -->
<!DOCTYPE svg PUBLIC "-//W3C//DTD SVG 1.1//EN" "http://www.w3.org/Graphics/SVG/1.1/DTD/svg11.dtd">
<svg version="1.1" id="Layer_1" xmlns="http://www.w3.org/2000/svg" xmlns:xlink="http://www.w3.org/1999/xlink" x="0px" y="0px"
	 viewBox="0 0 113.4 340.2" enable-background="new 0 0 113.4 340.2" xml:space="preserve">
<g>
	<path fill="#4FAE32" d="M95.5,177.5c-2.2,84.9-13.8,152.9-38.8,154.8c-25-1.9-36.7-69.9-38.8-154.8C17.8,85,35.1,9.9,56.7,7.5
		C78.2,9.9,95.5,85,95.5,177.5z"/>
	<path fill="#FCCE96" d="M56.7,7.5C35.1,9.9,17.8,85,17.8,177.5c2.2,84.9,13.8,152.9,38.8,154.8c25-1.9,36.7-69.9,38.8-154.8
		C95.5,85,78.2,9.9,56.7,7.5z M34.8,66.9c0.4-2,1.4-3.9,2.3-6.1c0-0.1-0.1-0.2-0.1-0.1c-0.4,0.3-1.4,0.8-1.9,1.1
		c-0.1,0-0.2,0-0.1-0.1c0.4-1.1,2.8-5.6,4.8-7.2c2.1-1.7,4.3-2.1,6.9-1.3c2.5,0.8,4.7,2,6.2,4.1c0.1,0.1,0.3,0,0.2-0.1
		c-1-2.4-4.9-5.3-5.7-6.1c-0.1-0.1,0-0.2,0.1-0.2c0,0,3.5-0.2,4.3-0.3c0.1,0,0.1-0.1,0.1-0.2c-2.1-3.1-5.1-4.4-8.9-4.6
		c-0.1,0-0.2-0.1-0.1-0.2c1.2-1.7,4.4-2.7,6.4-2.3c3.2,0.7,5.5,2.7,6.7,5.7c0.8,1.8,1.3,3.6,2,5.7c0,0.1,0.2,0.1,0.3,0
		c0.2-0.6,1.3-4.1,2-5.1c1.1-1.5,2.7-3,4.6-3.3c1-0.2,3.3,0.4,4.1,0.6c0.1,0,0.2,0.2,0.1,0.3c-0.5,0.3-1.5,1-1.9,1.3
		c-0.4,0.3-0.6,0.7-1.1,1.3c2.5,0.1,4.3,1,5.8,2.4c0.6,0.6,1.9,2.3,2,2.6c0,0.1-0.1,0.2-0.1,0.2c-0.9-0.1-5.3-0.5-7.3,0.1
		c-2.6,0.9-4.5,2.5-5.8,4.9c-0.1,0.2,0.1,0.4,0.3,0.3c4.5-3.2,9.1-2.8,13.7,0.2c1.6,1,3.2,2.1,4.1,4.1c-1.3-0.1-2.3-0.2-3.7-0.2
		c0.8,1,1.5,1.7,2,2.5c1.5,2.2,2.1,4.7,1.7,7.3c-0.3,1.4-0.6,2.9-0.9,4.3c-0.2,0.9-0.3,1.7-0.4,2.6c0,0.2-0.3,0.4-0.4,0.6
		c-0.2-0.2-0.5-0.4-0.5-0.7c-0.2-1-0.3-2-0.5-3.1c-0.4-3.3-1.3-6.5-3.6-9.1c-0.3-0.3-0.5-0.6-1-1.1c0.1,1.2,0.1,2.1,0.2,3
		c-0.2,0.1-0.2,0.1-0.4,0.1c-2-2.6-3.3-6.1-7.4-6.2c0,0.1,0,0.2,0,0.3c5.2,4.2,6.7,9.7,5.6,16.1c-0.4,2.3-1.2,4.4-2.4,6.4
		c-0.3,0.6-0.7,1.5-1.7,0.9c0.6-3.7,1.5-7.3-0.1-10.8c-0.3-0.7-0.8-1.4-1.3-2.3c-0.4,1-0.7,1.7-1,2.4c-0.1,0.1-0.2,0.1-0.3,0
		c-0.6-1-2.7-4.4-3.6-6.2c-0.3-0.6-0.5-1.2-0.7-1.9c-0.1-0.4-0.3-0.7-0.6-1c0,0.4-0.1,0.9-0.1,1.3c-0.6,11.8-0.2,21.3,1.1,30
		c0.4,2.4,0.9,4.7,1.5,6.9c1,3.4,3.3,7,4.1,8.1c0.1,0.2,0,0.4-0.1,0.4c-0.6,0.1-1.2,0.2-1.7,0.2c-2.4,0.1-4.2,0.2-5.8,0.2
		c-0.4,0-1.8,0-2.5-0.9c-1.6-2.2-2-5.2-2.3-7.9c-0.7-5.9-0.6-12.4,0.2-19.8c0.6-5.4,1.3-10.7,2-16.3c0-0.2,0.1-0.5,0.1-0.7
		c-0.8,1.5-3.6,7.1-4,8c0,0.1-0.1,0.1-0.2,0c-0.3-0.3-0.8-1-1.2-1.5c0-0.1-0.1,0-0.1,0c-0.4,1.1-1,2.1-1.1,3.2
		c-0.2,1.4-0.7,4.9-0.8,6.1c0,0.1-0.1,0.1-0.2,0c-0.3-0.7-0.6-1.3-0.9-2.1c0-0.1-0.2-0.1-0.2,0c-1.3,2.7-1.6,5.4-1.7,8.1
		c0,0.1-0.1,0.1-0.2,0.1c-3.4-4.5-4.4-9.6-4.1-15.3c0,0,0-0.1-0.1,0c-0.5,0.4-1.5,0.9-2,1.1c-0.1,0-0.1,0-0.1-0.1
		c0.1-0.7,1.1-3.2,1.8-4.1c1.9-2.1,3.7-4.3,6-5.9c1.6-1.2,3.8-1.7,5.8-2.2c0.8-0.2,1.6-0.3,2.4-0.5c0.2,0,0.1-0.3,0-0.3
		c-2.2-0.5-4.4-1.2-6.7-0.3c-2.2,0.9-5.8,4.3-6.2,4.6c0,0,0,0-0.1,0c-0.1-0.3-0.2-1.3-0.1-2c0-0.1-0.1-0.1-0.1-0.1
		c-2.2,1.9-4.9,6.8-5,6.8C34.8,73.7,34.3,69,34.8,66.9z M78.6,247.8c-0.3,1.4-0.6,2.9-0.9,4.3c-0.2,0.9-0.3,1.7-0.4,2.6
		c0,0.2-0.3,0.4-0.4,0.6c-0.2-0.2-0.5-0.4-0.5-0.7c-0.2-1-0.3-2-0.5-3.1c-0.4-3.3-1.3-6.5-3.6-9.1c-0.3-0.3-0.5-0.6-1-1.1
		c0.1,1.2,0.1,2.1,0.2,3c-0.2,0.1-0.2,0.1-0.4,0.1c-2-2.6-3.3-6.1-7.4-6.2c0,0.1,0,0.2,0,0.3c5.2,4.2,6.7,9.7,5.6,16.1
		c-0.4,2.3-1.2,4.4-2.4,6.4c-0.3,0.6-0.7,1.5-1.7,0.9c0.6-3.7,1.5-7.3-0.1-10.8c-0.3-0.7-0.8-1.4-1.3-2.3c-0.4,1-0.7,1.7-1,2.4
		c-0.1,0.1-0.2,0.1-0.3,0c-0.6-1-2.7-4.4-3.6-6.2c-0.3-0.6-0.5-1.2-0.7-1.9c-0.1-0.4-0.3-0.7-0.6-1c0,0.4-0.1,0.9-0.1,1.3
		c-0.6,11.8-0.2,21.3,1.1,30c0.4,2.4,0.9,4.7,1.5,6.9c1,3.4,3.3,7,4.1,8.1c0.1,0.2,0,0.4-0.1,0.4c-0.6,0.1-1.2,0.2-1.7,0.2
		c-2.4,0.1-4.2,0.2-5.8,0.2c-0.4,0-1.8,0-2.5-0.9c-1.6-2.2-2-5.2-2.3-7.9c-0.7-5.9-0.6-12.4,0.2-19.8c0.6-5.4,1.3-10.7,2-16.3
		c0-0.2,0.1-0.5,0.1-0.7c-0.8,1.5-3.6,7.1-4,8c0,0.1-0.1,0.1-0.2,0c-0.3-0.3-0.8-1-1.2-1.5c0-0.1-0.1,0-0.1,0
		c-0.4,1.1-1,2.1-1.1,3.2c-0.2,1.4-0.7,4.9-0.8,6.1c0,0.1-0.1,0.1-0.2,0c-0.3-0.7-0.6-1.3-0.9-2.1c0-0.1-0.2-0.1-0.2,0
		c-1.3,2.7-1.6,5.4-1.7,8.1c0,0.1-0.1,0.1-0.2,0.1c-3.4-4.5-4.4-9.6-4.1-15.3c0,0,0-0.1-0.1,0c-0.5,0.4-1.5,0.9-2,1.1
		c-0.1,0-0.1,0-0.1-0.1c0.1-0.7,1.1-3.2,1.8-4.1c1.9-2.1,3.7-4.3,6-5.9c1.6-1.2,3.8-1.7,5.8-2.2c0.8-0.2,1.6-0.3,2.4-0.5
		c0.2,0,0.1-0.3,0-0.3c-2.2-0.5-4.4-1.2-6.7-0.3c-2.2,0.9-5.8,4.3-6.2,4.6c0,0,0,0-0.1,0c-0.1-0.3-0.2-1.3-0.1-2
		c0-0.1-0.1-0.1-0.1-0.1c-2.2,1.9-4.9,6.8-5,6.8c-0.2-0.1-0.7-4.7-0.2-6.8c0.4-2,1.4-3.9,2.3-6.1c0-0.1-0.1-0.2-0.1-0.1
		c-0.4,0.3-1.4,0.8-1.9,1.1c-0.1,0-0.2,0-0.1-0.1c0.4-1.1,2.8-5.6,4.8-7.2c2.1-1.7,4.3-2.1,6.9-1.3c2.5,0.8,4.7,2,6.2,4.1
		c0.1,0.1,0.3,0,0.2-0.1c-1-2.4-4.9-5.3-5.7-6.1c-0.1-0.1,0-0.2,0.1-0.2c0,0,3.5-0.2,4.3-0.3c0.1,0,0.1-0.1,0.1-0.2
		c-2.1-3.1-5.1-4.4-8.9-4.6c-0.1,0-0.2-0.1-0.1-0.2c1.2-1.7,4.4-2.7,6.4-2.3c3.2,0.7,5.5,2.7,6.7,5.7c0.8,1.8,1.3,3.6,2,5.7
		c0,0.1,0.2,0.1,0.3,0c0.2-0.6,1.3-4.1,2-5.1c1.1-1.5,2.7-3,4.6-3.3c1-0.2,3.3,0.4,4.1,0.6c0.1,0,0.2,0.2,0.1,0.3
		c-0.5,0.3-1.5,1-1.9,1.3c-0.4,0.3-0.6,0.7-1.1,1.3c2.5,0.1,4.3,1,5.8,2.4c0.6,0.6,1.9,2.3,2,2.6c0,0.1-0.1,0.2-0.1,0.2
		c-0.9-0.1-5.3-0.5-7.3,0.1c-2.6,0.9-4.5,2.5-5.8,4.9c-0.1,0.2,0.1,0.4,0.3,0.3c4.5-3.2,9.1-2.8,13.7,0.2c1.6,1,3.2,2.1,4.1,4.1
		c-1.3-0.1-2.3-0.2-3.7-0.2c0.8,1,1.5,1.7,2,2.5C78.4,242.7,79,245.1,78.6,247.8z M78.6,157.2c-0.3,1.4-0.6,2.9-0.9,4.3
		c-0.2,0.9-0.3,1.7-0.4,2.6c0,0.2-0.3,0.4-0.4,0.6c-0.2-0.2-0.5-0.4-0.5-0.7c-0.2-1-0.3-2-0.5-3.1c-0.4-3.3-1.3-6.5-3.6-9.1
		c-0.3-0.3-0.5-0.6-1-1.1c0.1,1.2,0.1,2.1,0.2,3c-0.2,0.1-0.2,0.1-0.4,0.1c-2-2.6-3.3-6.1-7.4-6.2c0,0.1,0,0.2,0,0.3
		c5.2,4.2,6.7,9.7,5.6,16.1c-0.4,2.3-1.2,4.4-2.4,6.4c-0.3,0.6-0.7,1.5-1.7,0.9c0.6-3.7,1.5-7.3-0.1-10.8c-0.3-0.7-0.8-1.4-1.3-2.3
		c-0.4,1-0.7,1.7-1,2.4c-0.1,0.1-0.2,0.1-0.3,0c-0.6-1-2.7-4.4-3.6-6.2c-0.3-0.6-0.5-1.2-0.7-1.9c-0.1-0.4-0.3-0.7-0.6-1
		c0,0.4-0.1,0.9-0.1,1.3c-0.6,11.8-0.2,21.3,1.1,30c0.4,2.4,0.9,4.7,1.5,6.9c1,3.4,3.3,7,4.1,8.1c0.1,0.2,0,0.4-0.1,0.4
		c-0.6,0.1-1.2,0.2-1.7,0.2c-2.4,0.1-4.2,0.2-5.8,0.2c-0.4,0-1.8,0-2.5-0.9c-1.6-2.2-2-5.2-2.3-7.9c-0.7-5.9-0.6-12.4,0.2-19.8
		c0.6-5.4,1.3-10.7,2-16.3c0-0.2,0.1-0.5,0.1-0.7c-0.8,1.5-3.6,7.1-4,8c0,0.1-0.1,0.1-0.2,0c-0.3-0.3-0.8-1-1.2-1.5
		c0-0.1-0.1,0-0.1,0c-0.4,1.1-1,2.1-1.1,3.2c-0.2,1.4-0.7,4.9-0.8,6.1c0,0.1-0.1,0.1-0.2,0c-0.3-0.7-0.6-1.3-0.9-2.1
		c0-0.1-0.2-0.1-0.2,0c-1.3,2.7-1.6,5.4-1.7,8.1c0,0.1-0.1,0.1-0.2,0.1c-3.4-4.5-4.4-9.6-4.1-15.3c0,0,0-0.1-0.1,0
		c-0.5,0.4-1.5,0.9-2,1.1c-0.1,0-0.1,0-0.1-0.1c0.1-0.7,1.1-3.2,1.8-4.1c1.9-2.1,3.7-4.3,6-5.9c1.6-1.2,3.8-1.7,5.8-2.2
		c0.8-0.2,1.6-0.3,2.4-0.5c0.2,0,0.1-0.3,0-0.3c-2.2-0.5-4.4-1.2-6.7-0.3c-2.2,0.9-5.8,4.3-6.2,4.6c0,0,0,0-0.1,0
		c-0.1-0.3-0.2-1.3-0.1-2c0-0.1-0.1-0.1-0.1-0.1c-2.2,1.9-4.9,6.8-5,6.8c-0.2-0.1-0.7-4.7-0.2-6.8c0.4-2,1.4-3.9,2.3-6.1
		c0-0.1-0.1-0.2-0.1-0.1c-0.4,0.3-1.4,0.8-1.9,1.1c-0.1,0-0.2,0-0.1-0.1c0.4-1.1,2.8-5.6,4.8-7.2c2.1-1.7,4.3-2.1,6.9-1.3
		c2.5,0.8,4.7,2,6.2,4.1c0.1,0.1,0.3,0,0.2-0.1c-1-2.4-4.9-5.3-5.7-6.1c-0.1-0.1,0-0.2,0.1-0.2c0,0,3.5-0.2,4.3-0.3
		c0.1,0,0.1-0.1,0.1-0.2c-2.1-3.1-5.1-4.4-8.9-4.6c-0.1,0-0.2-0.1-0.1-0.2c1.2-1.7,4.4-2.7,6.4-2.3c3.2,0.7,5.5,2.7,6.7,5.7
		c0.8,1.8,1.3,3.6,2,5.7c0,0.1,0.2,0.1,0.3,0c0.2-0.6,1.3-4.1,2-5.1c1.1-1.5,2.7-3,4.6-3.3c1-0.2,3.3,0.4,4.1,0.6
		c0.1,0,0.2,0.2,0.1,0.3c-0.5,0.3-1.5,1-1.9,1.3c-0.4,0.3-0.6,0.7-1.1,1.3c2.5,0.1,4.3,1,5.8,2.4c0.6,0.6,1.9,2.3,2,2.6
		c0,0.1-0.1,0.2-0.1,0.2c-0.9-0.1-5.3-0.5-7.3,0.1c-2.6,0.9-4.5,2.5-5.8,4.9c-0.1,0.2,0.1,0.4,0.3,0.3c4.5-3.2,9.1-2.8,13.7,0.2
		c1.6,1,3.2,2.1,4.1,4.1c-1.3-0.1-2.3-0.2-3.7-0.2c0.8,1,1.5,1.7,2,2.5C78.4,152,79,154.5,78.6,157.2z"/>
</g>
</svg>
