<?xml version="1.0" encoding="utf-8"?>
<!-- Generator: Adobe Illustrator 18.1.1, SVG Export Plug-In . SVG Version: 6.00 Build 0)  -->
<!DOCTYPE svg PUBLIC "-//W3C//DTD SVG 1.1//EN" "http://www.w3.org/Graphics/SVG/1.1/DTD/svg11.dtd">
<svg version="1.1" id="Layer_1" xmlns="http://www.w3.org/2000/svg" xmlns:xlink="http://www.w3.org/1999/xlink" x="0px" y="0px"
	 viewBox="0 0 113.4 396.9" enable-background="new 0 0 113.4 396.9" xml:space="preserve">
<g>
	<path fill="#FCEA10" d="M100.3,207.2c-2.5,96.5-15.7,173.8-44.2,176c-28.5-2.2-41.7-79.5-44.1-176C12,102.2,31.7,16.8,56.2,14
		C80.7,16.8,100.3,102.2,100.3,207.2z"/>
	<path fill="#8ECDC3" d="M94.4,182.4C94.3,182.4,94.3,182.4,94.4,182.4c-1.3-0.3-2.6,0.1-3.6,0.8l-12.5,9.6l-2.1-15.6
		c-0.2-1.3-0.9-2.4-1.9-3.1c0,0,0,0,0,0c-1.4-1-3.3-1-4.8-0.2L45.2,188l14.2-24.2c0.9-1.5,0.8-3.4-0.2-4.8c0,0,0,0,0,0
		c-0.7-1.1-1.9-1.8-3.1-1.9L40.5,155l9.6-12.5c0.8-1,1.1-2.3,0.8-3.6c0,0,0,0,0,0c-0.3-1.7-1.6-3.1-3.3-3.5l-27.1-7.1l27.1-7.1
		c1.7-0.4,3-1.8,3.3-3.5c0,0,0,0,0,0c0.2-1.3-0.1-2.6-0.8-3.6l-9.6-12.5l15.6-2.1c1.3-0.2,2.4-0.9,3.1-1.9c0,0,0,0,0,0
		c1-1.4,1-3.3,0.2-4.8L45.2,68.5l24.2,14.2c1.5,0.9,3.4,0.8,4.8-0.2c0,0,0,0,0,0c1.1-0.7,1.8-1.9,1.9-3.1l2.1-15.6l8.8,6.7
		C79.1,36.7,68.2,15.4,56.2,14C31.7,16.8,12,102.2,12,207.2c0.1,4.2,0.2,8.4,0.4,12.5l0.7,2.7c0.4,1.7,1.8,3,3.5,3.3c0,0,0,0,0,0
		c1.3,0.2,2.6-0.1,3.6-0.8l12.5-9.6l2.1,15.6c0.2,1.3,0.9,2.4,1.9,3.1c0,0,0,0,0,0c1.4,1,3.3,1,4.8,0.2L65.8,220l-14.2,24.2
		c-0.9,1.5-0.8,3.4,0.2,4.8c0,0,0,0,0,0c0.7,1.1,1.9,1.8,3.1,1.9l15.6,2.1L61,265.5c-0.8,1-1.1,2.3-0.8,3.6c0,0,0,0,0,0
		c0.3,1.7,1.6,3.1,3.3,3.5l27.1,7.1l-27.1,7.1c-1.7,0.4-3,1.8-3.3,3.5c0,0,0,0,0,0c-0.2,1.3,0.1,2.6,0.8,3.6l9.6,12.5L55,308.5
		c-1.3,0.2-2.4,0.9-3.1,1.9c0,0,0,0,0,0c-1,1.4-1,3.3-0.2,4.8l14.2,24.2l-24.2-14.2c-1.5-0.9-3.4-0.8-4.8,0.2c0,0,0,0,0,0
		c-1.1,0.7-1.8,1.9-1.9,3.1l-2.1,15.6l-6.2-4.8c7,26.4,16.8,42.7,29.6,43.7c28.5-2.2,41.7-79.5,44.2-176c0-4.3,0-8.5-0.1-12.7
		l-2.3-8.9C97.5,184,96.1,182.7,94.4,182.4z"/>
</g>
</svg>
