<?xml version="1.0" encoding="utf-8"?>
<!-- Generator: Adobe Illustrator 18.1.1, SVG Export Plug-In . SVG Version: 6.00 Build 0)  -->
<!DOCTYPE svg PUBLIC "-//W3C//DTD SVG 1.1//EN" "http://www.w3.org/Graphics/SVG/1.1/DTD/svg11.dtd">
<svg version="1.1" id="Layer_1" xmlns="http://www.w3.org/2000/svg" xmlns:xlink="http://www.w3.org/1999/xlink" x="0px" y="0px"
	 viewBox="0 0 113.4 396.9" enable-background="new 0 0 113.4 396.9" xml:space="preserve">
<g>
	<path fill="#F1843E" d="M100.3,207.2c-2.5,96.5-15.7,173.8-44.2,176c-28.5-2.2-41.7-79.5-44.1-176C12,102.2,31.6,16.8,56.2,14
		C80.7,16.8,100.3,102.2,100.3,207.2z"/>
	<path fill="#352217" d="M56.2,14c-12.6,1.4-23.9,24.6-31.9,61.1c0.2,0.8,0.3,1.6,0.5,2.4c0.1,0.6,0.8,0.7,0.9,0
		c0.7-2.6,4.1-19.2,6.4-23.9c3.4-7.1,8.7-14.2,14.7-15.6c3.2-0.8,10.6,1.6,13.2,2.7c0.4,0.2,0.5,0.9,0.2,1.3c-1.5,1.6-4.8,4.6-6,5.9
		c-1.2,1.3-2,3.4-3.6,6.3c8,0.3,13.7,4.7,18.7,11.2c2,2.6,6.2,10.6,6.3,12c0,0.4-0.2,0.7-0.5,0.7c-3-0.3-17.1-2.5-23.4,0.6
		c-8.2,4.1-14.4,11.7-18.5,23c-0.3,0.9,0.4,1.8,1,1.2c14.6-15.1,29.3-13,43.9,1.2c5,4.9,10.4,9.7,13.3,19.3c-4.1-0.4-7.5-0.7-12-1.1
		c2.7,4.9,4.7,8.1,6.4,11.7c4.8,10.4,6.8,21.9,5.3,34.3c-0.8,6.8-2,13.4-3,20.1c-0.6,4-0.9,8.1-1.4,12c-0.2,1.1-0.9,2-1.3,2.9
		c-0.6-1-1.6-1.9-1.7-3.1c-0.6-4.7-1.1-9.5-1.5-14.3c-1.3-15.6-4.2-30.2-11.5-42.4c-0.8-1.4-1.7-2.7-3.2-5.2
		c0.2,5.7,0.4,9.9,0.6,14.1c-0.6,0.3-0.6,0.3-1.2,0.6c-6.5-12.1-10.5-28.6-23.7-28.9c0,0.6-0.2,1.1-0.1,1.2
		c16.8,19.6,21.5,45.2,18.1,75.4c-1.2,10.9-3.9,20.7-7.7,30c-1.1,2.7-2.3,7.2-5.3,4.4c1.9-17.3,4.7-34-0.4-50.6
		c-1.1-3.5-2.5-6.7-4.2-10.9c-1.3,4.6-2.2,7.9-3.1,11c-0.2,0.6-0.7,0.7-1,0.1c-2-4.7-8.7-20.7-11.7-28.9c-1-2.8-1.7-5.8-2.2-8.9
		c-0.3-2-1.1-3.7-2.1-5c-1.7,56.4-0.6,102.3,3.5,144.2c1.1,11.6,2.7,23,4.7,33.9c3.1,16.8,10.7,34.1,13.2,39.5
		c0.3,0.8,0.1,1.9-0.4,2.1c-1.9,0.6-3.7,1.1-5.5,1.2c-1.5,0.1-2.8,0.2-4.2,0.3c5.9,12.3,12.9,19.5,21.3,20.1
		c28.5-2.2,41.7-79.5,44.2-176C100.3,102.2,80.7,16.8,56.2,14z"/>
</g>
</svg>
