<?xml version="1.0" encoding="UTF-8" standalone="no"?>
<!-- Created with Inkscape (http://www.inkscape.org/) -->

<svg
   xmlns:dc="http://purl.org/dc/elements/1.1/"
   xmlns:cc="http://creativecommons.org/ns#"
   xmlns:rdf="http://www.w3.org/1999/02/22-rdf-syntax-ns#"
   xmlns:svg="http://www.w3.org/2000/svg"
   xmlns="http://www.w3.org/2000/svg"
   xmlns:sodipodi="http://sodipodi.sourceforge.net/DTD/sodipodi-0.dtd"
   xmlns:inkscape="http://www.inkscape.org/namespaces/inkscape"
   version="1.1"
   id="svg2"
   width="960"
   height="628.85413"
   viewBox="0 0 960 628.85413"
   sodipodi:docname="Wave.svg"
   inkscape:version="0.92.3 (2405546, 2018-03-11)"
   inkscape:export-filename="C:\Users\Jessica\Desktop\Beach Shapes\PNG Files\Wave.png"
   inkscape:export-xdpi="90"
   inkscape:export-ydpi="90">
  <metadata
     id="metadata8">
    <rdf:RDF>
      <cc:Work
         rdf:about="">
        <dc:format>image/svg+xml</dc:format>
        <dc:type
           rdf:resource="http://purl.org/dc/dcmitype/StillImage" />
        <dc:title />
      </cc:Work>
    </rdf:RDF>
  </metadata>
  <defs
     id="defs6" />
  <sodipodi:namedview
     pagecolor="#ffffff"
     bordercolor="#666666"
     borderopacity="1"
     objecttolerance="10"
     gridtolerance="10"
     guidetolerance="10"
     inkscape:pageopacity="0"
     inkscape:pageshadow="2"
     inkscape:window-width="1920"
     inkscape:window-height="1001"
     id="namedview4"
     showgrid="false"
     fit-margin-top="0"
     fit-margin-left="0"
     fit-margin-right="0"
     fit-margin-bottom="0"
     inkscape:zoom="1.2371709"
     inkscape:cx="479.99998"
     inkscape:cy="314.42705"
     inkscape:window-x="-9"
     inkscape:window-y="-9"
     inkscape:window-maximized="1"
     inkscape:current-layer="svg2" />
  <path
     style="fill:#00ffff;stroke:none;stroke-width:7.57443571px;stroke-linecap:butt;stroke-linejoin:miter;stroke-opacity:1"
     d="m 911.74503,216.74346 c 4.0111,6.00834 7.7451,12.21666 13.7685,12.39162 6.0234,0.17498 8.7803,-5.81269 13.7684,-11.01481 4.9882,-5.20212 10.7456,-8.89042 15.1453,-20.65269 4.3998,-11.76226 7.5377,-30.91051 4.1306,-49.56649 -3.4071,-18.65599 -14.8914,-39.38408 -27.537,-57.827564 -12.6456,-18.44348 -26.7317,-35.94376 -48.1896,-50.94334 -21.4579,-14.99958 -51.2326,-28.74751 -79.8571,-34.4211798 -28.6246,-5.67366002 -54.2887,-5.7333 -81.23395,-2.75369 -26.94517,2.97961 -56.63437,9.2866398 -79.85719,19.2758698 -23.22281,9.98921 -43.44347,26.79982 -63.33493,44.05909 -19.89145,17.25927 -33.82765,33.25591 -55.07386,59.204444 -21.24622,25.94849 -45.67567,64.69787 -70.21918,97.75611 -24.54352,33.05825 -51.5426,69.7935 -77.10344,100.50981 -25.56084,30.7163 -50.72675,59.98854 -75.72662,83.98768 -24.99989,23.99914 -47.4181,42.41775 -72.97288,60.58124 -25.55478,18.1635 -57.83573,38.02753 -79.85711,48.1897 -22.02139,10.16216 -33.01901,11.93875 -49.566514,16.52211 -16.54748,4.58337 -35.57295,7.78099 -49.56649,11.01482 -13.99355,3.23383 -26.1899,2.5182 -34.4212,8.26106 -8.23128,5.74286 -15.56016,11.40483 -13.76842004,20.65269 1.79173004,9.24785 21.40816004,19.90902 33.04430004,26.16005 11.63615,6.25103 20.23715,5.89821 37.17488,9.63802 16.93773,3.7398 37.038844,4.06792 56.450754,2.75368 19.41192,-1.31424 38.09305,-7.11217 59.20444,-11.01482 21.11139,-3.90265 40.81462,-9.36185 67.4655,-12.39162 26.65087,-3.02978 58.26717,-3.78964 92.24874,-4.13049 33.98157,-0.34085 70.38657,2.05001 101.88661,5.50737 31.50003,3.45743 62.87796,7.06861 86.74137,12.39162 23.86341,5.32301 45.64847,11.97617 66.08869,16.52212 20.44018,4.54595 34.96139,9.56128 56.45068,11.01482 21.48929,1.45353 49.96778,-0.95718 71.59602,-4.13057 21.6283,-3.17338 37.5338,-7.20685 57.8276,-13.76843 20.2937,-6.56158 46.579,-19.28641 63.335,-26.16013 16.756,-6.87372 28.1094,-9.93932 37.1749,-15.14531 9.0654,-5.20599 15.5961,-7.34341 17.899,-13.76843 2.3028,-6.42502 1.0471,-12.76323 -4.1306,-17.89908 -5.1777,-5.13584 -32.299,1.02899 -53.8432,0.53476 -21.5443,-0.49461 -39.3644,-6.85017 -54.9277,-14.30319 -15.5632,-7.45301 -32.4953,-23.10975 -46.8128,-37.17487 -14.31744,-14.06512 -28.7819,-29.30511 -38.55174,-46.81281 -9.76976,-17.5077 -15.80586,-35.55069 -19.27577,-56.45067 -3.46992,-20.9 -3.15148,-44.5217 0,-67.4655 3.15147,-22.9438 10.5297,-48.32369 19.27577,-68.84238 8.74607,-20.51869 20.0914,-39.0531 31.66754,-53.69706 11.5762,-14.64396 21.982,-25.55517 35.7979,-34.42112 13.8161,-8.86595 30.1973,-17.02437 45.4361,-17.89907 15.2388,-0.8747 28.1833,1.81499 39.9284,6.88426 11.7452,5.06926 23.1646,14.74068 30.2907,22.02956 7.1262,7.28888 10.1139,15.55213 13.7685,23.40637 3.6546,7.85423 4.2501,17.39809 8.2611,23.40644 z"
     id="path12"
     inkscape:connector-curvature="0"
     sodipodi:nodetypes="zzzzzzzzzzzzzzzzzzzzzzzzzzzzzzzzzzzzzzzzzzzzzzzzzzz" />
</svg>
